<?xml version="1.0" encoding="UTF-8"?> <svg xmlns="http://www.w3.org/2000/svg" width="646.801" height="263.923" viewBox="0 0 646.801 263.923"><g id="Group_580" data-name="Group 580" transform="translate(-341.117 -4274.188)"><g id="Group_429" data-name="Group 429" transform="translate(-0.313 690)"><path id="Path_604" data-name="Path 604" d="M330.643,111.868H181.127l-79.363,93.769,79.363,93.769H330.643l79.363-93.769Z" transform="translate(248.55 3512.132)" fill="none" stroke="#0a459c" stroke-width="3.6" stroke-dasharray="8 14"></path><path id="Path_614" data-name="Path 614" d="M330.643,111.868H181.127l-79.363,93.769,79.363,93.769H330.643l79.363-93.769Z" transform="translate(567.55 3512.132)" fill="none" stroke="#0a459c" stroke-width="3.6" stroke-dasharray="8 14"></path></g><g id="Group_386" data-name="Group 386" transform="translate(883.965 4275.43)"><path id="Path_394" data-name="Path 394" d="M3310.04,102.564c-8.644,0-15.409,11-16.059,20.284,2.71,4.7,9.255,6.5,16.059,6.5s13.342-1.768,16.052-6.5C3325.449,113.56,3318.677,102.564,3310.04,102.564Z" transform="translate(-3293.981 -102.564)" fill="#b3dcff"></path><path id="Path_395" data-name="Path 395" d="M3320.436,115.235c-1.9-2.45-4.315-5.05-5.719-5.05s-5.322,6.941-7.149,6.941-2.736-3.158-4.946-3.145c-3.015,0-5.966,8.871-5.966,8.871s1.222,5.413,14,5.413,13.8-5.323,13.8-5.323A27.882,27.882,0,0,0,3320.436,115.235Z" transform="translate(-3294.375 -103.686)" fill="#5ecc62"></path><path id="Path_396" data-name="Path 396" d="M3304.78,123.891a1.619,1.619,0,1,1,1.619,1.619h0a1.619,1.619,0,0,1-1.619-1.619m10.458,0a1.618,1.618,0,1,0,1.619-1.619h0a1.618,1.618,0,0,0-1.619,1.619m-.292,2.372a.5.5,0,0,0-.884-.461,2.671,2.671,0,0,1-2.4,1.221,2.97,2.97,0,0,1-2.489-1.248.5.5,0,0,0-.851.52,3.964,3.964,0,0,0,3.34,1.722A3.646,3.646,0,0,0,3314.945,126.263Z" transform="translate(-3295.571 -105.466)"></path><path id="Path_397" data-name="Path 397" d="M3308.762,120.1c-1.983,0-3-1.949-3.555-3.165-.494-1.085-.585-2.807-1.989-2.852a1.074,1.074,0,0,1,.4-.084c2.209,0,3.146,3.145,4.946,3.145s5.726-6.96,7.122-6.96a1.994,1.994,0,0,1,.885.26.9.9,0,0,0-.78.228C3315.339,111.134,3311.219,120.1,3308.762,120.1Z" transform="translate(-3295.341 -103.686)" fill="#00ad45"></path></g><g id="Group_376" data-name="Group 376" transform="translate(429.79 4274.188)"><rect id="Rectangle_256" data-name="Rectangle 256" width="5.066" height="16.066" rx="0.964" transform="translate(0.741 7.91)" fill="#0a459c"></rect><ellipse id="Ellipse_54" data-name="Ellipse 54" cx="3.274" cy="3.274" rx="3.274" ry="3.274" transform="translate(0 0)" fill="#0a459c"></ellipse><path id="Path_399" data-name="Path 399" d="M3451.667,190.074a.745.745,0,0,1-.744.744h-3.7a.745.745,0,0,1-.745-.744V183.3c0-1.011.3-4.43-2.642-4.43-2.279,0-2.741,2.34-2.834,3.39v7.816a.744.744,0,0,1-.744.744h-3.577a.745.745,0,0,1-.744-.744V175.5a.745.745,0,0,1,.744-.744h3.577a.745.745,0,0,1,.744.744v1.26c.845-1.268,2.1-2.247,4.775-2.247,5.922,0,5.888,5.532,5.888,8.572v6.993Z" transform="translate(-3427.85 -166.841)" fill="#0a459c"></path></g><path id="Path_607" data-name="Path 607" d="M2918.191,301.12h-20.2a3.726,3.726,0,0,0-3.726,3.726v20.2a3.726,3.726,0,0,0,3.726,3.726h9.962l.017-9.881H2905.4a.607.607,0,0,1-.606-.6l-.011-3.185a.606.606,0,0,1,.606-.608h2.562v-3.078c0-3.571,2.181-5.516,5.368-5.516h2.615a.606.606,0,0,1,.606.606v2.686a.606.606,0,0,1-.606.606h-1.6c-1.733,0-2.068.823-2.068,2.032v2.664h3.807a.605.605,0,0,1,.6.677l-.377,3.186a.606.606,0,0,1-.6.534h-3.414l-.017,9.881h5.927a3.726,3.726,0,0,0,3.726-3.726v-20.2A3.726,3.726,0,0,0,2918.191,301.12Z" transform="translate(-1933.999 4149.58)" fill="#0a459c"></path><path id="Path_606" data-name="Path 606" d="M442.153,266.14H513.9l-35.874-60.55Z" transform="translate(48.467 4074.196)" fill="#ffc13c"></path><g id="Group_377" data-name="Group 377" transform="translate(514.897 4309.795)"><path id="Path_348" data-name="Path 348" d="M828.135,1659.7v-2.74a2.11,2.11,0,0,0,1.217-1.9v-.063a2.11,2.11,0,0,0-2.11-2.11h-.063a2.11,2.11,0,0,0-2.11,2.11v.063a2.109,2.109,0,0,0,1.217,1.9v2.74a5.972,5.972,0,0,0-2.841,1.251l-7.514-5.853a2.372,2.372,0,1,0-2.3,1.78h0a2.354,2.354,0,0,0,1.17-.317l7.4,5.757a5.994,5.994,0,0,0,.091,6.752l-2.251,2.25a1.947,1.947,0,1,0,1.391,1.862,1.92,1.92,0,0,0-.091-.562l2.227-2.226a6,6,0,1,0,4.563-10.693m-.923,9.01a3.08,3.08,0,1,1,3.083-3.082,3.08,3.08,0,0,1-3.083,3.082" transform="translate(-811.26 -1652.122)" fill="#fff"></path></g><g id="Group_378" data-name="Group 378" transform="translate(351.812 4340.454)"><path id="Fill-1" d="M976.025,1709.095a13.283,13.283,0,0,1,21.3,2.8,16.123,16.123,0,0,1,6.616-1.4,16.466,16.466,0,1,1-3.206,32.611,11.962,11.962,0,0,1-15.65,4.925,13.622,13.622,0,0,1-25.325-.612,12.838,12.838,0,0,1-2.594.262,12.818,12.818,0,0,1-6.324-23.868,14.429,14.429,0,0,1-1.224-5.858,14.7,14.7,0,0,1,26.4-8.86" transform="translate(-944.522 -1703.295)" fill="#2e83ff"></path><path id="Combined-Shape" d="M952.552,1725.834l.32-.846c.059-.145.146-.088.2-.057.087.057.145.088.262.175a3.622,3.622,0,0,0,2.01.581c.67,0,1.108-.349,1.108-.844v-.03c0-.525-.642-.728-1.4-.962l-.175-.059c-1.019-.291-2.126-.728-2.126-2.011v-.028a2.18,2.18,0,0,1,2.419-2.1h.146a4.109,4.109,0,0,1,2.214.612.141.141,0,0,1,.088.175c-.029.088-.291.758-.321.846-.057.144-.2.057-.2.057a4.434,4.434,0,0,0-1.982-.5c-.612,0-.99.321-.99.758v.03c0,.494.669.728,1.427.961l.146.029c1.02.321,2.1.758,2.1,2.011v.03c0,1.34-.961,2.157-2.506,2.157a4.7,4.7,0,0,1-2.273-.526,3.431,3.431,0,0,1-.437-.262C952.552,1725.979,952.493,1725.95,952.552,1725.834Zm22.73,0,.321-.846a.12.12,0,0,1,.2-.057c.087.057.146.088.262.175a3.628,3.628,0,0,0,2.012.581c.669,0,1.106-.349,1.106-.844v-.03c0-.525-.641-.728-1.4-.962l-.175-.059c-1.02-.291-2.126-.728-2.126-2.011v-.028a2.181,2.181,0,0,1,2.419-2.1h.145a4.11,4.11,0,0,1,2.215.612.142.142,0,0,1,.087.175c-.03.088-.292.758-.321.846-.059.144-.2.057-.2.057a4.435,4.435,0,0,0-1.982-.5c-.612,0-.992.321-.992.758v.03c0,.494.671.728,1.429.961l.146.029c1.019.321,2.1.758,2.1,2.011v.03c0,1.34-.962,2.157-2.507,2.157a4.7,4.7,0,0,1-2.272-.526,3.363,3.363,0,0,1-.437-.262C975.312,1725.979,975.254,1725.95,975.282,1725.834Zm16.845-3.992a5.4,5.4,0,0,1,.2,1.4,4.374,4.374,0,0,1-.2,1.4,2.991,2.991,0,0,1-.583,1.136,2.811,2.811,0,0,1-.99.758,3.863,3.863,0,0,1-2.8,0,2.575,2.575,0,0,1-.99-.758,3.009,3.009,0,0,1-.583-1.136,5.418,5.418,0,0,1-.2-1.4,4.409,4.409,0,0,1,.2-1.4,3.013,3.013,0,0,1,.583-1.137,2.814,2.814,0,0,1,.99-.758,3.525,3.525,0,0,1,1.4-.291,3.09,3.09,0,0,1,1.4.291,2.58,2.58,0,0,1,.99.758A2.994,2.994,0,0,1,992.127,1721.841Zm-1.311,1.37a3.221,3.221,0,0,0-.408-1.748,1.4,1.4,0,0,0-1.252-.614,1.37,1.37,0,0,0-1.254.614,3.225,3.225,0,0,0-.408,1.748,3.41,3.41,0,0,0,.408,1.777,1.589,1.589,0,0,0,2.506,0A3.089,3.089,0,0,0,990.816,1723.211Zm11.977,2.185.321.874a.112.112,0,0,1-.059.146,5.045,5.045,0,0,1-1.836.321,3.277,3.277,0,0,1-2.565-.963,3.726,3.726,0,0,1-.874-2.594,4.381,4.381,0,0,1,.2-1.4,3.109,3.109,0,0,1,.641-1.136,3.021,3.021,0,0,1,1.049-.758,3.717,3.717,0,0,1,1.457-.291,8.352,8.352,0,0,1,.962.059,4.671,4.671,0,0,1,.874.232.116.116,0,0,1,.087.146c-.116.349-.2.583-.32.875-.059.146-.146.087-.146.087a4.074,4.074,0,0,0-1.37-.2,1.605,1.605,0,0,0-1.429.641,2.691,2.691,0,0,0-.495,1.719,2.543,2.543,0,0,0,.553,1.778,1.916,1.916,0,0,0,1.486.553,4.6,4.6,0,0,0,.7-.059,2.389,2.389,0,0,0,.613-.174C1002.618,1725.309,1002.736,1725.28,1002.793,1725.4Zm6.616-3.818a4.006,4.006,0,0,1,.116,1.895.114.114,0,0,1-.116.116h-4.4a1.961,1.961,0,0,0,.525,1.457,2.059,2.059,0,0,0,1.515.524,4.3,4.3,0,0,0,1.807-.321.157.157,0,0,1,.175.087l.292.817c.057.145,0,.175-.03.2a4.536,4.536,0,0,1-2.214.437,4.393,4.393,0,0,1-1.6-.262,2.953,2.953,0,0,1-1.107-.728,3.248,3.248,0,0,1-.641-1.107,4.9,4.9,0,0,1,0-2.8,3.01,3.01,0,0,1,.583-1.138,2.685,2.685,0,0,1,1.019-.757,3.251,3.251,0,0,1,1.457-.292,2.841,2.841,0,0,1,1.254.262,2.619,2.619,0,0,1,.845.642A2.4,2.4,0,0,1,1009.409,1721.579Zm-4.372.933h3.118a2.315,2.315,0,0,0-.291-1.049,1.341,1.341,0,0,0-1.224-.643,1.39,1.39,0,0,0-1.254.643A2.956,2.956,0,0,0,1005.037,1722.512Zm-30.8-.933a4.788,4.788,0,0,1,.146,1.895.115.115,0,0,1-.117.116h-4.4a1.959,1.959,0,0,0,.524,1.457,2.055,2.055,0,0,0,1.514.524,4.3,4.3,0,0,0,1.807-.321.157.157,0,0,1,.175.087l.291.817c.059.145,0,.175-.029.2a4.547,4.547,0,0,1-2.216.437,4.383,4.383,0,0,1-1.6-.262,2.954,2.954,0,0,1-1.108-.728,3.225,3.225,0,0,1-.641-1.107,4.874,4.874,0,0,1,0-2.8,3.012,3.012,0,0,1,.582-1.138,2.7,2.7,0,0,1,1.02-.757,3.252,3.252,0,0,1,1.457-.292,2.839,2.839,0,0,1,1.254.262,2.6,2.6,0,0,1,.844.642A2.386,2.386,0,0,1,974.233,1721.579Zm-4.371.933h3.147a2.32,2.32,0,0,0-.291-1.049,1.341,1.341,0,0,0-1.225-.643,1.389,1.389,0,0,0-1.252.643A2.471,2.471,0,0,0,969.863,1722.512Zm-7.724-.234s.35.029.729.088v-.175c0-.583-.117-.874-.35-1.049a1.83,1.83,0,0,0-1.079-.293,4.8,4.8,0,0,0-1.923.439.091.091,0,0,1-.059.028s-.116.029-.145-.059l-.321-.846a.129.129,0,0,1,.029-.174,4.044,4.044,0,0,1,1.342-.495,7.86,7.86,0,0,1,1.165-.117,2.964,2.964,0,0,1,2.01.612,2.453,2.453,0,0,1,.7,1.953v4.021s0,.118-.088.146a3.057,3.057,0,0,1-.321.088c-.146.029-.67.146-1.108.2a6.652,6.652,0,0,1-1.34.118,4.728,4.728,0,0,1-1.167-.118,2.809,2.809,0,0,1-.9-.378,1.975,1.975,0,0,1-.583-.7,2.066,2.066,0,0,1-.2-.99,2.293,2.293,0,0,1,.232-1.02,2.2,2.2,0,0,1,.642-.73,3.285,3.285,0,0,1,.9-.437,4.39,4.39,0,0,1,1.079-.145C961.731,1722.278,961.964,1722.278,962.139,1722.278Zm-1.748,3.09a1.963,1.963,0,0,0,1.283.262,8.524,8.524,0,0,0,1.2-.146v-2.01a8.629,8.629,0,0,0-1.2-.087,2.072,2.072,0,0,0-1.283.319.944.944,0,0,0-.378.846,1.151,1.151,0,0,0,.145.583C960.187,1725.193,960.215,1725.25,960.39,1725.368Zm37.158-5.334c-.03.116-.262.728-.321.933a.159.159,0,0,1-.175.116,2.677,2.677,0,0,0-.5-.058,2.351,2.351,0,0,0-.583.089,1.533,1.533,0,0,0-.553.32,1.4,1.4,0,0,0-.378.642,4.064,4.064,0,0,0-.146,1.165v3.265a.138.138,0,0,1-.146.145h-1.165a.138.138,0,0,1-.146-.145v-6.557a.134.134,0,0,1,.116-.146h1.138c.087,0,.116.058.116.146v.525a1.932,1.932,0,0,1,.728-.553,2.288,2.288,0,0,1,1.136-.175,4.675,4.675,0,0,1,.729.116C997.518,1719.888,997.577,1719.918,997.548,1720.034ZM986.736,1717a.118.118,0,0,1,.088.146l-.35.932c-.03.058-.058.117-.2.058-.029,0-.087-.029-.232-.058a1.311,1.311,0,0,0-.351-.029,2.232,2.232,0,0,0-.465.059.738.738,0,0,0-.379.234,1.442,1.442,0,0,0-.321.466,4.367,4.367,0,0,0-.233.99h1.4c.118,0,.146.058.146.146l-.175.9c-.029.147-.146.118-.146.118h-1.456l-.933,5.625a11.014,11.014,0,0,1-.38,1.486,2.765,2.765,0,0,1-.582.99,1.716,1.716,0,0,1-.817.554,2.991,2.991,0,0,1-1.078.175,2.48,2.48,0,0,1-.642-.059,1.593,1.593,0,0,1-.407-.116.13.13,0,0,1-.059-.175c.029-.087.291-.786.321-.9.057-.117.145-.058.145-.058.087.029.146.058.233.088a1.443,1.443,0,0,0,.35.029,1.4,1.4,0,0,0,.524-.087.875.875,0,0,0,.409-.321,2.937,2.937,0,0,0,.321-.612,9.852,9.852,0,0,0,.262-1.078l.99-5.508h-.961c-.116,0-.146-.059-.146-.147l.175-.9c.03-.146.146-.116.146-.116h.99l.059-.292a3.588,3.588,0,0,1,.874-1.982,2.565,2.565,0,0,1,1.866-.669,3.631,3.631,0,0,1,.612.058A.7.7,0,0,1,986.736,1717Zm-19.642,9.471a.134.134,0,0,1-.118.146h-1.165c-.087,0-.117-.059-.117-.146v-9.355c0-.057.059-.145.117-.145h1.165c.087,0,.118.057.118.145Z" transform="translate(-941.594 -1698.322)" fill="#fff"></path></g><g id="Group_379" data-name="Group 379" transform="translate(341.117 4449.477)"><path id="Path_353" data-name="Path 353" d="M1110.788,1605.807h2.882a1.758,1.758,0,0,1,.043.238,2.066,2.066,0,0,1,0,.275,3.238,3.238,0,0,1-.171,1.068,2.44,2.44,0,0,1-.525.9,2.848,2.848,0,0,1-.947.653,3.235,3.235,0,0,1-1.221.226,3.2,3.2,0,0,1-1.221-.226,3,3,0,0,1-1-.653,3.093,3.093,0,0,1-.666-.971,3.049,3.049,0,0,1-.244-1.221,3,3,0,0,1,.244-1.222,3.09,3.09,0,0,1,.666-.971,2.925,2.925,0,0,1,.983-.641,3.218,3.218,0,0,1,1.222-.232,3.137,3.137,0,0,1,1.27.25,2.872,2.872,0,0,1,.964.678l-.763.745a1.979,1.979,0,0,0-.61-.457,2.169,2.169,0,0,0-1.613,0,1.979,1.979,0,0,0-.61.4,2.007,2.007,0,0,0-.434.611,2.166,2.166,0,0,0-.159.837,2.136,2.136,0,0,0,.159.83,1.89,1.89,0,0,0,.434.611,1.945,1.945,0,0,0,.641.409,2.127,2.127,0,0,0,.77.141,2,2,0,0,0,.788-.134,1.878,1.878,0,0,0,.556-.349,1.352,1.352,0,0,0,.281-.372,2.094,2.094,0,0,0,.189-.507h-1.832Z" transform="translate(-1107.717 -1575.39)" fill="#4d4d4d"></path><path id="Path_354" data-name="Path 354" d="M1125.394,1607.479a1.528,1.528,0,0,1-.568,1.221,2.168,2.168,0,0,1-1.392.458,2.049,2.049,0,0,1-1.289-.427,2.158,2.158,0,0,1-.745-1.142l.72-.3a1.864,1.864,0,0,0,.2.476,1.653,1.653,0,0,0,.311.366,1.336,1.336,0,0,0,.391.239,1.229,1.229,0,0,0,.446.086,1.3,1.3,0,0,0,.849-.269.859.859,0,0,0,.324-.708.829.829,0,0,0-.268-.611,2.59,2.59,0,0,0-.953-.5,9.044,9.044,0,0,1-.874-.342,1.507,1.507,0,0,1-.964-1.392,1.437,1.437,0,0,1,.519-1.106,1.893,1.893,0,0,1,1.289-.464,1.978,1.978,0,0,1,1.166.348,1.647,1.647,0,0,1,.653.843l-.7.293a1.07,1.07,0,0,0-.391-.544,1.275,1.275,0,0,0-1.459,0,.716.716,0,0,0-.3.611.7.7,0,0,0,.239.525,4.072,4.072,0,0,0,1.135.525,2.925,2.925,0,0,1,1.277.739A1.587,1.587,0,0,1,1125.394,1607.479Z" transform="translate(-1113.278 -1575.407)" fill="#4d4d4d"></path><path id="Path_355" data-name="Path 355" d="M1132.735,1610.386h-.721v-.562h-.037a1.332,1.332,0,0,1-.525.5,1.579,1.579,0,0,1-.745.2,1.482,1.482,0,0,1-1.136-.422,1.7,1.7,0,0,1-.4-1.222v-2.51h.752v2.479a.884.884,0,0,0,.773.984.839.839,0,0,0,.221,0,.971.971,0,0,0,.758-.36,1.33,1.33,0,0,0,.3-.873v-2.229h.757Z" transform="translate(-1116.436 -1576.745)" fill="#4d4d4d"></path><path id="Path_356" data-name="Path 356" d="M1137.634,1603.671a.5.5,0,0,1-.153.379.531.531,0,0,1-.751.019l-.006-.006a.526.526,0,0,1-.008-.743l.008-.009a.532.532,0,0,1,.751-.006l.006.006A.5.5,0,0,1,1137.634,1603.671Zm-.153,1.387v4.024h-.757v-4.024Z" transform="translate(-1119.442 -1575.441)" fill="#4d4d4d"></path><path id="Path_357" data-name="Path 357" d="M1141.107,1609.611a1.147,1.147,0,0,1-.818-.3,1.133,1.133,0,0,1-.33-.849v-2.247h-.709v-.69h.709V1604.3h.751v1.222h.983v.69h-.983v1.979a.719.719,0,0,0,.159.543.493.493,0,0,0,.348.147.794.794,0,0,0,.177,0l.165-.055.232.671A1.944,1.944,0,0,1,1141.107,1609.611Z" transform="translate(-1120.533 -1575.909)" fill="#4d4d4d"></path><path id="Path_358" data-name="Path 358" d="M1146.168,1610.431a1.937,1.937,0,0,1-1.46-.611,2.351,2.351,0,0,1,0-3.053,2,2,0,0,1,2.824-.052l.022.021a2.3,2.3,0,0,1,.519,1.6v.08h-3.17a1.312,1.312,0,0,0,.4.964,1.219,1.219,0,0,0,.9.36,1.258,1.258,0,0,0,1.13-.721l.671.33a1.957,1.957,0,0,1-.751.818A2.068,2.068,0,0,1,1146.168,1610.431Zm-1.222-2.626h2.3a1,1,0,0,0-.318-.69,1.222,1.222,0,0,0-.825-.275,1.094,1.094,0,0,0-.739.263,1.263,1.263,0,0,0-.4.7Z" transform="translate(-1122.522 -1576.661)" fill="#4d4d4d"></path><path id="Path_359" data-name="Path 359" d="M1114.4,1566.12c.055-.159.11-.312.172-.464a7.694,7.694,0,0,1,4.274-4.275,9.022,9.022,0,0,1,6.535,0,8.133,8.133,0,0,1,2.626,1.832l3.053-3.053a11.581,11.581,0,0,0-3.951-2.718,12.731,12.731,0,0,0-5.221-.971,12.991,12.991,0,0,0-4.886,1,12.148,12.148,0,0,0-6.43,6.247Z" transform="translate(-1108.875 -1556.467)" fill="#ed1c24"></path><path id="Path_360" data-name="Path 360" d="M1109.793,1579.342l3.664-2.766a8.866,8.866,0,0,1-.422-2.785,8.7,8.7,0,0,1,.428-2.79l-3.732-2.632-.2.439a12.912,12.912,0,0,0,0,9.972C1109.616,1578.969,1109.7,1579.159,1109.793,1579.342Z" transform="translate(-1108.047 -1561.304)" fill="#fbb03b"></path><path id="Path_361" data-name="Path 361" d="M1141.478,1576.509a7.6,7.6,0,0,0-.165-.971h-11.682v3.866h7.481a8.492,8.492,0,0,1-.763,2.021,5.357,5.357,0,0,1-1.148,1.52c-.2.177-.41.348-.611.513l3.664,2.571c.142-.135.283-.275.422-.422a10.026,10.026,0,0,0,2.2-3.634,13.3,13.3,0,0,0,.7-4.336A8.686,8.686,0,0,0,1141.478,1576.509Z" transform="translate(-1116.623 -1564.218)" fill="#4285f4"></path><path id="Path_362" data-name="Path 362" d="M1126.879,1586.052a7.712,7.712,0,0,1-1.649.923,8.952,8.952,0,0,1-6.358-.055,8.062,8.062,0,0,1-2.583-1.649,7.8,7.8,0,0,1-1.765-2.583c-.1-.232-.183-.464-.262-.708l-3.664,2.749a12.361,12.361,0,0,0,2.491,3.511,12.216,12.216,0,0,0,4,2.6,12.908,12.908,0,0,0,4.886.935,13.14,13.14,0,0,0,5.1-.935,16.448,16.448,0,0,0,3.475-2.308Z" transform="translate(-1108.888 -1566.835)" fill="#34b73f"></path></g><g id="Group_427" data-name="Group 427" transform="translate(-6.909 680.305)"><circle id="Ellipse_149" data-name="Ellipse 149" cx="48.5" cy="48.5" r="48.5" transform="translate(621.909 3678.695)" fill="#2e83ff"></circle><g id="Group_380" data-name="Group 380" transform="translate(644.618 3712.895)"><path id="Path_303" data-name="Path 303" d="M226.441,351.657a3.257,3.257,0,0,0,.579.952,2.769,2.769,0,0,0,.818.572,4.083,4.083,0,0,0,1.273.345,8.2,8.2,0,0,0,4.243-.712,1.041,1.041,0,0,1,1.236.05c.272.209,2.094,1.707,2.094,1.707.345.264.294.344,0,.592s-1.1.789-1.1.789a11.326,11.326,0,0,1-8.537,1.66,7.467,7.467,0,0,1-4.9-3.678,9.039,9.039,0,0,1-1.07-3.426,8.7,8.7,0,0,1,.236-3.459,7.663,7.663,0,0,1,1.465-2.829,8.177,8.177,0,0,1,2.471-2,9.089,9.089,0,0,1,3.247-1,9.349,9.349,0,0,1,3.035.085,6.793,6.793,0,0,1,2.375.944,5.41,5.41,0,0,1,1.6,1.584,4.645,4.645,0,0,1,.722,1.971,5.071,5.071,0,0,1-.152,2.091,3.493,3.493,0,0,1-1.242,1.71,6.841,6.841,0,0,1-2.68,1.308c-1.243.3-2.806.392-4.629.614Zm-.365-3.183a25.585,25.585,0,0,0,3.216-.213,6.7,6.7,0,0,0,1.7-.433,1.209,1.209,0,0,0,.67-.569,1.674,1.674,0,0,0,.113-.62,1.425,1.425,0,0,0-.609-1.119,2.75,2.75,0,0,0-1.773-.447,3.362,3.362,0,0,0-1.45.321,3.163,3.163,0,0,0-1.639,1.858A4.1,4.1,0,0,0,226.076,348.475Z" transform="translate(-221 -335.215)" fill="#fff"></path><path id="Path_304" data-name="Path 304" d="M335.57,301.271s3.27-1.084,4.178-1.451a.256.256,0,0,1,.385.226v7.462a6.73,6.73,0,0,1,1.687-1.13,6.323,6.323,0,0,1,2.863-.573,7.427,7.427,0,0,1,5.4,2.292,7.931,7.931,0,0,1,1.64,2.615,9.263,9.263,0,0,1,.6,3.42,8.689,8.689,0,0,1-.65,3.4,7.642,7.642,0,0,1-1.795,2.631,8.174,8.174,0,0,1-2.709,1.687,9.335,9.335,0,0,1-3.39.6,9.963,9.963,0,0,1-4.055-.8,7.511,7.511,0,0,1-3-2.353,7.274,7.274,0,0,1-1.146-2.445,12.939,12.939,0,0,1-.4-3.436V302.157S335.18,301.425,335.57,301.271Zm8.093,16.608a3.435,3.435,0,0,0,2.554-1.021,3.674,3.674,0,0,0,1.007-2.693,3.838,3.838,0,0,0-1.007-2.74,3.585,3.585,0,0,0-3.978-.773,3.522,3.522,0,0,0-1.872,2.012,4.231,4.231,0,0,0-.263,1.5,3.65,3.65,0,0,0,1.005,2.724A3.489,3.489,0,0,0,343.662,317.878Z" transform="translate(-318.826 -299.786)" fill="#fff"></path><path id="Path_305" data-name="Path 305" d="M475.785,363.005s-3.035,1.027-3.942,1.4a.256.256,0,0,1-.385-.226v-7.462a6.73,6.73,0,0,1-1.687,1.13,6.323,6.323,0,0,1-2.863.573,7.427,7.427,0,0,1-5.4-2.292,7.93,7.93,0,0,1-1.64-2.615,9.263,9.263,0,0,1-.6-3.42,8.689,8.689,0,0,1,.65-3.4,7.641,7.641,0,0,1,1.795-2.631,8.174,8.174,0,0,1,2.708-1.687,9.337,9.337,0,0,1,3.39-.6,9.963,9.963,0,0,1,4.055.8,7.51,7.51,0,0,1,3,2.353,7.272,7.272,0,0,1,1.146,2.445,12.942,12.942,0,0,1,.4,3.436v11.37A.967.967,0,0,1,475.785,363.005Zm-7.856-16.664a3.435,3.435,0,0,0-2.554,1.021,3.675,3.675,0,0,0-1.007,2.693,3.838,3.838,0,0,0,1.007,2.74,3.585,3.585,0,0,0,3.978.773,3.522,3.522,0,0,0,1.872-2.012,4.228,4.228,0,0,0,.264-1.5,3.65,3.65,0,0,0-1.005-2.724A3.487,3.487,0,0,0,467.928,346.342Z" transform="translate(-425.134 -335.748)" fill="#fff"></path></g></g><g id="Group_428" data-name="Group 428" transform="translate(0 685)"><rect id="Rectangle_419" data-name="Rectangle 419" width="55.353" height="55.353" transform="translate(501 3791.916)" fill="#0a459c"></rect><g id="Group_383" data-name="Group 383" transform="translate(510 3805.737)"><ellipse id="Ellipse_47" data-name="Ellipse 47" cx="2.723" cy="2.723" rx="2.723" ry="2.723" transform="translate(0 9.057)" fill="#fff"></ellipse><ellipse id="Ellipse_48" data-name="Ellipse 48" cx="2.723" cy="2.723" rx="2.723" ry="2.723" transform="translate(10.483 1.569)" fill="#fff"></ellipse><ellipse id="Ellipse_49" data-name="Ellipse 49" cx="2.723" cy="2.723" rx="2.723" ry="2.723" transform="translate(21.181 8.986)" fill="#fff"></ellipse><ellipse id="Ellipse_50" data-name="Ellipse 50" cx="2.723" cy="2.723" rx="2.723" ry="2.723" transform="translate(32.805)" fill="#fff"></ellipse><rect id="Rectangle_235" data-name="Rectangle 235" width="2.942" height="12.142" transform="translate(11.643 3.548) rotate(52.532)" fill="#fff"></rect><rect id="Rectangle_236" data-name="Rectangle 236" width="2.942" height="12.142" transform="translate(33.555 2.427) rotate(52.532)" fill="#fff"></rect><rect id="Rectangle_237" data-name="Rectangle 237" width="2.942" height="12.142" transform="translate(23.835 9.748) rotate(124.32)" fill="#fff"></rect></g><text id="Datanyze" transform="translate(529 3834.346)" fill="#fff" font-size="7" font-family="LucidaGrande, Lucida Grande"><tspan x="-15.753" y="0">Datanyze</tspan></text></g><g id="Group_384" data-name="Group 384" transform="translate(400.862 4472.557)"><ellipse id="Ellipse_51" data-name="Ellipse 51" cx="27.785" cy="27.785" rx="27.785" ry="27.785" transform="translate(0)" fill="#7daaff"></ellipse><path id="Path_415" data-name="Path 415" d="M2795.378,136.024a10.711,10.711,0,0,0-14.437-.639l-.7.584a9.161,9.161,0,0,0-1.134-.07h-.067l-.036,0a9.189,9.189,0,0,0,.1,18.378h8.015c.226.014.455.021.682.021h.029l.168,0a10.943,10.943,0,0,0,2.141-.252,10.754,10.754,0,0,0,1.371-.4,10.709,10.709,0,0,0,3.859-17.615Zm-16.267,15.7a6.631,6.631,0,0,1-.026-13.262h.026a6.477,6.477,0,0,1,.984.073,6.575,6.575,0,0,1,2.78,1.1,6.8,6.8,0,0,1,.729.582c.068.064.137.128.2.2l.457.455,2.208,2.212a.927.927,0,1,1-1.31,1.31l-2.235-2.236-.465-.464c-.069-.07-.143-.135-.218-.2a4.786,4.786,0,0,0-3.134-1.168l-.136,0a4.776,4.776,0,0,0,.136,9.551h.846l.781.755a10.491,10.491,0,0,0,1.266,1.1Zm14.459-2.365a8.1,8.1,0,0,1-3.981,2.191,8.316,8.316,0,0,1-1.633.193l-.148,0a8.1,8.1,0,0,1-5.176-1.854c-.2-.166-.4-.345-.585-.533l-.394-.4-.928-.925-2.49-2.491a.928.928,0,1,1,1.312-1.312l3.8,3.8.01.009a6.3,6.3,0,0,0,4.451,1.844,6.338,6.338,0,0,0,1.55-.192,6.461,6.461,0,0,0,.912-.307,6.295,6.295,0,1,0-5.974-11.019,8.3,8.3,0,0,0-1.712-1.026,8.146,8.146,0,0,1,10.985,12.01Z" transform="translate(-2756.426 -115.806)" fill="#fff"></path></g><g id="Group_387" data-name="Group 387" transform="translate(910.503 4331.414)"><ellipse id="Ellipse_66" data-name="Ellipse 66" cx="27.216" cy="27.216" rx="27.216" ry="27.216" fill="#fff" stroke="#2e83ff" stroke-miterlimit="10" stroke-width="4"></ellipse><g id="Group_147" data-name="Group 147" transform="translate(12.802 11.903)"><path id="WordPress" d="M3005.678,107.724a15.09,15.09,0,1,0,15.09-15.091A15.089,15.089,0,0,0,3005.678,107.724Zm1.163,0a13.888,13.888,0,0,1,1.207-5.668l6.643,18.2A13.927,13.927,0,0,1,3006.841,107.724Zm13.927,13.927a13.942,13.942,0,0,1-3.935-.566l4.18-12.141,4.281,11.728a1.284,1.284,0,0,0,.1.19A13.864,13.864,0,0,1,3020.769,121.651Zm11.256-14.189a13.156,13.156,0,0,0,1.06-4.988,10.274,10.274,0,0,0-.1-1.433,13.928,13.928,0,0,1-5.217,18.719Zm-3-4.283a7.341,7.341,0,0,1,1.149,3.841,13,13,0,0,1-1.06,4.5l-1.39,4.639-5.034-14.969c.84-.046,1.594-.133,1.594-.133a.576.576,0,0,0-.088-1.149s-2.256.178-3.713.178c-1.369,0-3.667-.178-3.667-.178a.576.576,0,0,0-.088,1.149s.711.087,1.462.133l2.168,5.945-3.048,9.139-5.073-15.084c.84-.046,1.6-.133,1.6-.133a.576.576,0,0,0-.09-1.149s-2.254.178-3.712.178c-.261,0-.568-.008-.9-.017a13.919,13.919,0,0,1,21.04-2.62c-.059,0-.119-.012-.179-.012a2.41,2.41,0,0,0-2.34,2.471A6.529,6.529,0,0,0,3029.021,103.18Z" transform="translate(-3005.678 -92.633)" fill="#2e83ff"></path></g></g><g id="Group_381" data-name="Group 381" transform="translate(752.87 4285.106)"><rect id="Rectangle_246" data-name="Rectangle 246" width="57.437" height="57.437" transform="translate(57.437) rotate(90)" fill="#0a459c"></rect><g id="Group_195" data-name="Group 195" transform="translate(8.094 15.288)"><path id="Path_400" data-name="Path 400" d="M2867.624,93.643a59.324,59.324,0,0,1,6.07-1.217c.872-.13,1.768-.237,2.679-.329a60.977,60.977,0,0,1,2.059-6.469l-.275.046a61.663,61.663,0,0,0-8.267,2.159,60.591,60.591,0,0,0-2.3,5.809" transform="translate(-2852.207 -76.405)" fill="#fff"></path><path id="Path_401" data-name="Path 401" d="M2859.041,90.716c.88-1.791,1.861-3.559,2.909-5.266-1.608.918-3.208,1.906-4.754,2.947-1.186,1.722-2.3,3.5-3.3,5.3,1.668-1.079,3.4-2.082,5.136-2.993" transform="translate(-2850.828 -76.387)" fill="#fff"></path><path id="Path_402" data-name="Path 402" d="M2865.469,94.3a57.647,57.647,0,0,1,2.12-5.657,62.872,62.872,0,0,0-7.356,3.2c-.811,1.661-1.531,3.376-2.182,5.083a56.285,56.285,0,0,1,7.409-2.625" transform="translate(-2851.246 -76.708)" fill="#fff"></path><path id="Path_403" data-name="Path 403" d="M2878.332,83.8l.879-.153a63.9,63.9,0,0,1,3.062-6.461,67.251,67.251,0,0,0-8.113,2.5,63.147,63.147,0,0,0-3.307,6.008,63.288,63.288,0,0,1,7.5-1.89" transform="translate(-2852.535 -75.555)" fill="#fff"></path><path id="Path_405" data-name="Path 405" d="M2855.965,97.936c.582-1.63,1.24-3.261,1.975-4.869a63.153,63.153,0,0,0-5.412,3.353c-.765,1.477-1.432,2.985-2.044,4.485a52.99,52.99,0,0,1,5.489-2.978" transform="translate(-2850.484 -77.154)" fill="#fff"></path><path id="Path_406" data-name="Path 406" d="M2878.59,91.878a60.2,60.2,0,0,1,9.706-.053c.765-2.572,1.531-5.014,2.365-7.3h-.421a59.493,59.493,0,0,0-9.484.765,60.085,60.085,0,0,0-2.159,6.568" transform="translate(-2853.314 -76.294)" fill="#fff"></path><path id="Path_407" data-name="Path 407" d="M2890.534,82.559h.834a54.484,54.484,0,0,1,3.437-7.187,59.161,59.161,0,0,0-10.1,1.308,63.064,63.064,0,0,0-3.193,6.576,59.93,59.93,0,0,1,9.024-.7" transform="translate(-2853.608 -75.372)" fill="#fff"></path><path id="Path_408" data-name="Path 408" d="M2865.573,101.552c1.2-.207,2.419-.375,3.613-.505,1.814-.191,3.682-.306,5.557-.336a53.178,53.178,0,0,1,1.157-6.7c-.765.085-1.532.184-2.3.291a58.655,58.655,0,0,0-6.575,1.354,54.688,54.688,0,0,0-1.47,5.887" transform="translate(-2852.002 -77.249)" fill="#fff"></path><path id="Path_410" data-name="Path 410" d="M2863.5,101.947a54.305,54.305,0,0,1,1.378-5.756,55.469,55.469,0,0,0-7.54,2.8c-.581,1.684-1.079,3.361-1.477,5.006a52.847,52.847,0,0,1,7.654-2.051" transform="translate(-2851.026 -77.469)" fill="#fff"></path></g></g><g id="Group_382" data-name="Group 382" transform="translate(730.089 4464.514)"><rect id="Rectangle_285" data-name="Rectangle 285" width="52.041" height="52.041" transform="translate(73.598 36.799) rotate(135)" fill="#7daaff"></rect><g id="Group_152" data-name="Group 152" transform="translate(23.808 23.621)"><path id="Path_411" data-name="Path 411" d="M3105.23,191.1v29.122l7.451-5.938V195.13Z" transform="translate(-3087.741 -191.095)" fill="#fff"></path><path id="Path_412" data-name="Path 412" d="M3092.61,216.3l-6,2.619V196.064l6,1.79Z" transform="translate(-3078.57 -193.542)" fill="#fff"></path><path id="Path_413" data-name="Path 413" d="M3070.771,218.572l4.572-1.188.016-14.61-4.588-.716Z" transform="translate(-3070.771 -196.494)" fill="#fff"></path></g></g><g id="Group_385" data-name="Group 385" transform="translate(860.901 4460.37)"><path id="Path_450" data-name="Path 450" d="M442.153,267.691H515.74l-36.793-62.1Z" transform="translate(-442.153 -205.59)" fill="#ffc13c"></path><g id="Group_196" data-name="Group 196" transform="translate(22.482 27.878)"><path id="Path_416" data-name="Path 416" d="M2842.286,191.169h.548a1.465,1.465,0,0,0,0-1.1c-.137-.685-.343-1.027-.685-1.027s-.411.548-.274,1.164a4.412,4.412,0,0,0,.411.958Z" transform="translate(-2822.646 -178.2)" fill="#fff"></path><g id="Group_155" data-name="Group 155" transform="translate(13.821 12.737)"><path id="Path_417" data-name="Path 417" d="M2837.24,192.34c.274.137.411.205.479.137s0-.137-.068-.205a1.366,1.366,0,0,0-.685-.547,1.946,1.946,0,0,0-1.916.205.8.8,0,0,0-.342.411.067.067,0,0,0,.069.068,5.565,5.565,0,0,1,1.3-.274,1.983,1.983,0,0,1,1.164.205Z" transform="translate(-2834.707 -191.56)" fill="#fff"></path><path id="Path_418" data-name="Path 418" d="M2837.052,192.957a2.3,2.3,0,0,0-.684.274.366.366,0,0,0-.205.274v.068h.068a1.551,1.551,0,0,0,.274-.068,2.446,2.446,0,0,1,1.164-.137h.274v-.137a1.113,1.113,0,0,0-.89-.274Z" transform="translate(-2835.068 -191.903)" fill="#fff"></path></g><path id="Path_419" data-name="Path 419" d="M2840.879,194.259a.43.43,0,0,0,.616-.137.5.5,0,0,0-.274-.547.432.432,0,0,0-.616.137C2840.468,193.917,2840.6,194.122,2840.879,194.259Z" transform="translate(-2822.334 -179.305)" fill="#fff"></path><path id="Path_420" data-name="Path 420" d="M2842.877,192.688c-.206,0-.343.205-.343.479s.137.479.343.479.342-.205.342-.479A.373.373,0,0,0,2842.877,192.688Z" transform="translate(-2822.826 -179.103)" fill="#fff"></path><path id="Path_421" data-name="Path 421" d="M2824.377,198.13a.128.128,0,0,0-.205,0h-.205a.522.522,0,0,1-.342-.137.748.748,0,0,1,0-.547l.068-.137a1.85,1.85,0,0,0,.137-1.506,1.434,1.434,0,0,0-1.027-.753,1.533,1.533,0,0,0-1.164.411,1.789,1.789,0,0,0-.41,1.369.147.147,0,0,0,.137.137.366.366,0,0,0,.274-.205v-.068a.754.754,0,0,1,.205-.411.792.792,0,0,1,.479-.342.7.7,0,0,1,.617.137.816.816,0,0,1,.274.958,1.6,1.6,0,0,0-.137.821c.068.617.411.822.753.822a.658.658,0,0,0,.615-.274c-.068-.206-.068-.206-.068-.275Z" transform="translate(-2817.538 -179.685)" fill="#fff"></path><path id="Path_422" data-name="Path 422" d="M2841.376,192.042a2.941,2.941,0,0,0-.205-.684l-.205-.616a2.677,2.677,0,0,0,.411-1.575,1.865,1.865,0,0,0-.547-1.1,4.769,4.769,0,0,0-1.986-1.027l-.616-.068s0-1.233-.069-1.712a7.077,7.077,0,0,0-.205-1.506,4.36,4.36,0,0,0-1.027-1.849,6.209,6.209,0,0,0,2.053-4.039c0-2.4-2.944-3.149-6.64-1.642l-.753.342s-1.369-1.369-1.437-1.369c-4.175-3.628-17.181,10.815-13.006,14.306l.89.754a4.986,4.986,0,0,0-.274,2.053,4.066,4.066,0,0,0,1.37,2.6,4.2,4.2,0,0,0,2.738,1.095,10.677,10.677,0,0,0,9.651,6.161c4.655.137,8.557-2.054,10.2-5.956a7.462,7.462,0,0,0,.547-2.6c.137-1.164-.479-1.575-.89-1.575Zm-19.029,2.944h-.411a3.349,3.349,0,0,1-3.08-2.807,2.769,2.769,0,0,1,2.19-3.217,1.9,1.9,0,0,1,.617-.068,2.674,2.674,0,0,1,2.327,2.533C2824.263,193.069,2823.921,194.712,2822.347,194.986Zm-1.575-7.051a3.454,3.454,0,0,0-2.259,1.437c-.274-.274-.89-.753-.959-.958-.821-1.506.89-4.518,2.054-6.16,2.875-4.108,7.461-7.256,9.515-6.708.342.068,1.506,1.437,1.506,1.437a26.96,26.96,0,0,0-4.039,2.807A19.405,19.405,0,0,0,2820.772,187.935Zm14.785,6.366.068-.068a.067.067,0,0,0-.068-.068,9.6,9.6,0,0,1-4.244-.411c.205-.754.821-.479,1.712-.411a12.511,12.511,0,0,0,4.176-.48,9.716,9.716,0,0,0,3.149-1.574,4.744,4.744,0,0,1,.41,1.506.671.671,0,0,1,.479.068c.205.137.342.342.274,1.027a6.259,6.259,0,0,1-1.575,3.149,6.706,6.706,0,0,1-1.916,1.437,9.685,9.685,0,0,1-1.232.547c-3.286,1.095-6.64-.137-7.735-2.67l-.206-.616a5.186,5.186,0,0,1,1.164-4.928h0a.342.342,0,0,0,0-.547c-.41-.616-1.917-1.712-1.643-3.765a2.778,2.778,0,0,1,2.738-2.464h.274a9.339,9.339,0,0,1,1.438.137,2.924,2.924,0,0,0,2.121-.684,2,2,0,0,1,.821-.479.535.535,0,0,1,.342,0,1.615,1.615,0,0,1,.548.137c.616.411.684,1.369.753,2.122,0,.411.068,1.438.068,1.712.069.684.205.753.547.89l.616.205a3.337,3.337,0,0,1,1.575.753.817.817,0,0,1,.274.547c.068.685-.548,1.575-2.259,2.328a10.62,10.62,0,0,1-5.613.89l-.548-.068c-1.232-.137-1.916,1.438-1.232,2.533a4.007,4.007,0,0,0,3.08,1.163,8.235,8.235,0,0,0,6.161-2.4l.069-.068c.068-.068,0-.068-.069-.068-.685.479-3.834,2.4-7.119,1.779a4.245,4.245,0,0,1-.753-.205c-.274-.137-.89-.411-.958-1.027a6.037,6.037,0,0,0,4.312.068Zm-4.244-.479Zm-5.134-11.5a12.6,12.6,0,0,1,3.423-2.807c.068,0,.068,0,.068.068a8.091,8.091,0,0,0-.342.753.067.067,0,0,0,.069.068,6.581,6.581,0,0,1,3.011-1.1c.068,0,.068.068,0,.068a3.163,3.163,0,0,0-.479.479.067.067,0,0,0,.069.068,5.614,5.614,0,0,1,2.533.684c.068,0,0,.137-.068.137a10.393,10.393,0,0,0-8.282,1.643s-.068-.068,0-.068Z" transform="translate(-2816.328 -174.624)" fill="#fff"></path></g></g></g></svg> 